<?xml version="1.0" encoding="UTF-8" standalone="no"?><!-- Generator: Gravit.io --><svg xmlns="http://www.w3.org/2000/svg" xmlns:xlink="http://www.w3.org/1999/xlink" style="isolation:isolate" viewBox="0 0 1698.1 111" width="1698.1pt" height="111pt"><defs><clipPath id="_clipPath_Vb8ZUMnePI4CQ1ygIHHFBIYHjrLzcKVN"><rect width="1698.1" height="111"/></clipPath></defs><g clip-path="url(#_clipPath_Vb8ZUMnePI4CQ1ygIHHFBIYHjrLzcKVN)"><rect width="1698.1" height="111" style="fill:rgb(0,0,0)" fill-opacity="0"/><mask id="_mask_NB0FSOzeJtSspNJVkEYCIvRsTp2gGrBC" x="-200%" y="-200%" width="400%" height="400%"><rect x="-200%" y="-200%" width="400%" height="400%" style="fill:white;"/><line x1="0" y1="107.5" x2="494" y2="107.5" fill="black" stroke="none"/></mask><linearGradient id="_lgradient_2" x1="0.011867004048582985" y1="0.0810810810810807" x2="1.0727854251012143" y2="0.0810810810810807"><stop offset="17.5%" stop-opacity="0" style="stop-color:rgb(255,255,255)"/><stop offset="100%" stop-opacity="1" style="stop-color:rgb(255,255,255)"/></linearGradient><line x1="0" y1="107.5" x2="494" y2="107.5" mask="url(#_mask_NB0FSOzeJtSspNJVkEYCIvRsTp2gGrBC)" vector-effect="non-scaling-stroke" stroke-width="6" stroke="url(#_lgradient_2)" stroke-linejoin="miter" stroke-linecap="butt" stroke-miterlimit="4"/><mask id="_mask_OGrCEElY7j7aeWAA698qzUfNxEUlt5yc" x="-200%" y="-200%" width="400%" height="400%"><rect x="-200%" y="-200%" width="400%" height="400%" style="fill:white;"/><line x1="494" y1="107.5" x2="1697" y2="109" fill="black" stroke="none"/></mask><line x1="494" y1="107.5" x2="1697" y2="109" mask="url(#_mask_OGrCEElY7j7aeWAA698qzUfNxEUlt5yc)" vector-effect="non-scaling-stroke" stroke-width="6" stroke="rgb(255,255,255)" stroke-linejoin="miter" stroke-linecap="butt" stroke-miterlimit="4"/><mask id="_mask_a4YMUaMvLuNjaUTkNgAU50x7Xm6Chjq2" x="-200%" y="-200%" width="400%" height="400%"><rect x="-200%" y="-200%" width="400%" height="400%" style="fill:white;"/><path d=" M 1611 107.621 C 1674 107.621 1799 120.121 1527 62.121 C 1149.94 -18.282 922.5 0.121 791 6.121" fill="black" stroke="none"/></mask><linearGradient id="_lgradient_3" x1="0.23891610532761787" y1="0.11033886988291597" x2="0.9689375382731167" y2="0.22703168984617417"><stop offset="0%" stop-opacity="0" style="stop-color:rgb(255,255,255)"/><stop offset="100%" stop-opacity="1" style="stop-color:rgb(255,255,255)"/></linearGradient><path d=" M 1611 107.621 C 1674 107.621 1799 120.121 1527 62.121 C 1149.94 -18.282 922.5 0.121 791 6.121" fill="none" mask="url(#_mask_a4YMUaMvLuNjaUTkNgAU50x7Xm6Chjq2)" vector-effect="non-scaling-stroke" stroke-width="4" stroke="url(#_lgradient_3)" stroke-linejoin="miter" stroke-linecap="butt" stroke-miterlimit="4"/><path d=" M 1611 107.621 C 1674 107.621 1799 120.121 1527 62.121 C 1149.94 -18.282 922.5 0.121 791 6.121" fill="none"/></g></svg>