<svg width="48" height="114" viewBox="0 0 48 114" fill="none" xmlns="http://www.w3.org/2000/svg">
<path d="M25.028 1.30958L35.1861 28.4377L9.13936 47.7589L2.21562 21.2763L25.028 1.30958Z" stroke="white"/>
<path d="M41.097 20.9546L36.6417 27.2702L27.0275 1.63748L35.9999 8.9136L41.097 20.9546Z" stroke="white"/>
<path d="M18.7618 53.9356L18.687 54.0464L18.6775 54.1797L14.8586 107.472L9.35272 49.573L34.0552 31.2892L18.7618 53.9356Z" stroke="white"/>
<path d="M41.5646 23.1506L46.7483 48.3196L21.173 53.279L33.6105 35.138L33.6106 35.138L33.6148 35.1317L41.5646 23.1506Z" stroke="white"/>
<path d="M7.60388 48.8753L12.8503 103.248L1.69487 62.2263L2.09886 27.6501L7.60388 48.8753Z" stroke="white"/>
<path d="M20.4512 54.977L46.4139 49.976L16.3459 107.458L19.1801 69.2974L19.1804 69.2938L20.4512 54.977Z" stroke="white"/>
</svg>
