<svg width="273" height="225" viewBox="0 0 273 225" fill="none" xmlns="http://www.w3.org/2000/svg">
<path d="M202 115.189L147.582 61L92 115.189L147.582 172L202 115.189Z" stroke="url(#paint0_linear_676_1986)" stroke-width="2"/>
<path d="M147.098 77.8702V6L255 112.929L184.104 114.097L147.098 77.8702Z" stroke="url(#paint1_linear_676_1986)" stroke-width="2"/>
<path d="M147.098 78.4545L145.929 6L39.0003 114.682L110.091 113.903L147.098 78.4545Z" stroke="url(#paint2_linear_676_1986)" stroke-width="2"/>
<path d="M147.098 151.493V222.584L39.0003 115.655L110.481 113.903L147.098 151.493Z" stroke="url(#paint3_linear_676_1986)" stroke-width="2"/>
<path d="M147.487 152.077L148.266 222.584L255 114.097H183.909L147.487 152.077Z" stroke="url(#paint4_linear_676_1986)" stroke-width="2"/>
<g filter="url(#filter0_d_676_1986)">
<path d="M185.168 22.014H179.092V11.976H180.646V20.67H185.168V22.014ZM191.342 22.014H189.844V21.258H189.83C189.783 21.314 189.713 21.3933 189.62 21.496C189.536 21.5987 189.41 21.7013 189.242 21.804C189.074 21.8973 188.859 21.9813 188.598 22.056C188.337 22.1307 188.019 22.168 187.646 22.168C187.385 22.168 187.123 22.1213 186.862 22.028C186.61 21.944 186.386 21.818 186.19 21.65C185.985 21.482 185.821 21.2813 185.7 21.048C185.579 20.8053 185.518 20.53 185.518 20.222C185.518 19.6807 185.695 19.2093 186.05 18.808C186.414 18.3973 186.834 18.122 187.31 17.982C187.87 17.814 188.374 17.73 188.822 17.73C189.27 17.7207 189.611 17.7207 189.844 17.73V17.338C189.844 17.226 189.835 17.1 189.816 16.96C189.797 16.82 189.741 16.666 189.648 16.498C189.564 16.3673 189.429 16.2553 189.242 16.162C189.065 16.0687 188.836 16.022 188.556 16.022C188.183 16.022 187.875 16.1153 187.632 16.302C187.399 16.4887 187.282 16.7687 187.282 17.142H185.714C185.714 16.8433 185.77 16.554 185.882 16.274C186.003 15.994 186.181 15.7467 186.414 15.532C186.657 15.3173 186.955 15.1447 187.31 15.014C187.665 14.8833 188.085 14.818 188.57 14.818C189.522 14.818 190.222 15.0607 190.67 15.546C191.118 16.022 191.342 16.6007 191.342 17.282V22.014ZM189.844 19.284V18.794C189.62 18.7847 189.377 18.7847 189.116 18.794C188.864 18.8033 188.598 18.836 188.318 18.892C188.047 18.948 187.777 19.0833 187.506 19.298C187.235 19.5033 187.1 19.7647 187.1 20.082C187.1 20.4087 187.207 20.6373 187.422 20.768C187.637 20.8893 187.879 20.95 188.15 20.95C188.402 20.95 188.691 20.8613 189.018 20.684C189.354 20.5067 189.592 20.2547 189.732 19.928C189.76 19.8347 189.783 19.7367 189.802 19.634C189.83 19.5313 189.844 19.4147 189.844 19.284ZM199.095 22.028H197.695V18.206C197.695 17.9913 197.69 17.772 197.681 17.548C197.681 17.324 197.643 17.114 197.569 16.918C197.503 16.7313 197.391 16.5773 197.233 16.456C197.074 16.3253 196.841 16.246 196.533 16.218C196.103 16.19 195.721 16.3673 195.385 16.75C195.049 17.1327 194.801 17.618 194.643 18.206C194.605 18.374 194.577 18.542 194.559 18.71C194.54 18.8687 194.531 19.018 194.531 19.158V22.028H193.131V14.986H194.531V16.554H194.601C194.638 16.4607 194.694 16.3207 194.769 16.134C194.843 15.938 194.965 15.742 195.133 15.546C195.291 15.3593 195.497 15.196 195.749 15.056C196.01 14.9067 196.346 14.832 196.757 14.832C197.429 14.832 197.984 15.0327 198.423 15.434C198.871 15.8353 199.095 16.3953 199.095 17.114V22.028ZM206.967 22.028H205.525V21.02H205.483C205.464 21.076 205.422 21.1693 205.357 21.3C205.301 21.4307 205.198 21.5613 205.049 21.692C204.9 21.832 204.699 21.9487 204.447 22.042C204.204 22.1447 203.887 22.196 203.495 22.196C203.066 22.196 202.674 22.112 202.319 21.944C201.964 21.7667 201.656 21.5193 201.395 21.202C201.143 20.8847 200.947 20.5067 200.807 20.068C200.667 19.6293 200.597 19.144 200.597 18.612C200.597 18.36 200.606 18.1313 200.625 17.926C200.644 17.7113 200.681 17.5013 200.737 17.296C200.961 16.4 201.339 15.7653 201.871 15.392C202.403 15.0187 203 14.832 203.663 14.832C203.943 14.832 204.186 14.8787 204.391 14.972C204.606 15.0653 204.788 15.1773 204.937 15.308C205.086 15.448 205.203 15.5927 205.287 15.742C205.38 15.882 205.446 16.0033 205.483 16.106H205.525V11.962H206.967V22.028ZM205.413 18.164C205.413 17.996 205.38 17.7907 205.315 17.548C205.259 17.3053 205.166 17.072 205.035 16.848C204.904 16.624 204.732 16.4327 204.517 16.274C204.312 16.1153 204.055 16.036 203.747 16.036C203.374 16.036 203.033 16.1807 202.725 16.47C202.417 16.75 202.226 17.156 202.151 17.688C202.132 17.7813 202.118 17.87 202.109 17.954C202.109 18.0287 202.109 18.108 202.109 18.192C202.1 18.276 202.095 18.36 202.095 18.444C202.095 18.5187 202.095 18.598 202.095 18.682C202.095 18.9527 202.123 19.228 202.179 19.508C202.244 19.7787 202.347 20.026 202.487 20.25C202.618 20.4833 202.786 20.67 202.991 20.81C203.206 20.95 203.462 21.02 203.761 21.02C204.172 21.02 204.508 20.852 204.769 20.516C205.04 20.18 205.217 19.788 205.301 19.34C205.329 19.172 205.352 18.9853 205.371 18.78C205.399 18.5747 205.413 18.3693 205.413 18.164ZM210.447 22.056H208.963V11.99H210.447V22.056ZM218.889 18.528C218.889 19.6387 218.581 20.5253 217.965 21.188C217.358 21.8507 216.504 22.182 215.403 22.182C214.367 22.182 213.527 21.8693 212.883 21.244C212.239 20.6187 211.917 19.718 211.917 18.542C211.917 18.038 211.987 17.562 212.127 17.114C212.267 16.666 212.477 16.274 212.757 15.938C213.046 15.602 213.406 15.336 213.835 15.14C214.274 14.944 214.787 14.846 215.375 14.846C216.476 14.846 217.335 15.182 217.951 15.854C218.576 16.5167 218.889 17.408 218.889 18.528ZM217.349 18.528C217.349 18.2107 217.312 17.9073 217.237 17.618C217.172 17.3193 217.06 17.0533 216.901 16.82C216.742 16.5867 216.537 16.4 216.285 16.26C216.033 16.12 215.725 16.05 215.361 16.05C215.016 16.05 214.717 16.12 214.465 16.26C214.222 16.3907 214.022 16.568 213.863 16.792C213.704 17.0253 213.588 17.2913 213.513 17.59C213.448 17.8887 213.415 18.206 213.415 18.542C213.415 18.8687 213.452 19.1813 213.527 19.48C213.602 19.7693 213.718 20.026 213.877 20.25C214.036 20.474 214.241 20.6513 214.493 20.782C214.754 20.9127 215.062 20.978 215.417 20.978C215.762 20.978 216.056 20.9127 216.299 20.782C216.551 20.642 216.752 20.46 216.901 20.236C217.06 20.012 217.172 19.7553 217.237 19.466C217.312 19.1673 217.349 18.8547 217.349 18.528ZM224.789 16.316C224.089 16.316 223.482 16.4467 222.969 16.708C222.456 16.96 222.129 17.3847 221.989 17.982C221.942 18.15 221.905 18.3367 221.877 18.542C221.858 18.738 221.844 18.948 221.835 19.172V22.056H220.365V15.014H221.835V16.442H221.905C221.961 16.3113 222.05 16.1433 222.171 15.938C222.292 15.7233 222.456 15.546 222.661 15.406C222.941 15.2193 223.221 15.084 223.501 15C223.781 14.9067 224.21 14.86 224.789 14.86V16.316ZM231.467 22.028H230.025V21.02H229.983C229.964 21.076 229.922 21.1693 229.857 21.3C229.801 21.4307 229.698 21.5613 229.549 21.692C229.4 21.832 229.199 21.9487 228.947 22.042C228.704 22.1447 228.387 22.196 227.995 22.196C227.566 22.196 227.174 22.112 226.819 21.944C226.464 21.7667 226.156 21.5193 225.895 21.202C225.643 20.8847 225.447 20.5067 225.307 20.068C225.167 19.6293 225.097 19.144 225.097 18.612C225.097 18.36 225.106 18.1313 225.125 17.926C225.144 17.7113 225.181 17.5013 225.237 17.296C225.461 16.4 225.839 15.7653 226.371 15.392C226.903 15.0187 227.5 14.832 228.163 14.832C228.443 14.832 228.686 14.8787 228.891 14.972C229.106 15.0653 229.288 15.1773 229.437 15.308C229.586 15.448 229.703 15.5927 229.787 15.742C229.88 15.882 229.946 16.0033 229.983 16.106H230.025V11.962H231.467V22.028ZM229.913 18.164C229.913 17.996 229.88 17.7907 229.815 17.548C229.759 17.3053 229.666 17.072 229.535 16.848C229.404 16.624 229.232 16.4327 229.017 16.274C228.812 16.1153 228.555 16.036 228.247 16.036C227.874 16.036 227.533 16.1807 227.225 16.47C226.917 16.75 226.726 17.156 226.651 17.688C226.632 17.7813 226.618 17.87 226.609 17.954C226.609 18.0287 226.609 18.108 226.609 18.192C226.6 18.276 226.595 18.36 226.595 18.444C226.595 18.5187 226.595 18.598 226.595 18.682C226.595 18.9527 226.623 19.228 226.679 19.508C226.744 19.7787 226.847 20.026 226.987 20.25C227.118 20.4833 227.286 20.67 227.491 20.81C227.706 20.95 227.962 21.02 228.261 21.02C228.672 21.02 229.008 20.852 229.269 20.516C229.54 20.18 229.717 19.788 229.801 19.34C229.829 19.172 229.852 18.9853 229.871 18.78C229.899 18.5747 229.913 18.3693 229.913 18.164ZM237.985 20.054C237.985 20.3713 237.938 20.6653 237.845 20.936C237.752 21.1973 237.588 21.4213 237.355 21.608C237.122 21.804 236.814 21.9533 236.431 22.056C236.048 22.1587 235.563 22.21 234.975 22.21C234.527 22.21 234.102 22.1587 233.701 22.056C233.3 21.9533 232.992 21.8553 232.777 21.762V20.348C232.88 20.404 233.001 20.4693 233.141 20.544C233.29 20.6187 233.458 20.6887 233.645 20.754C233.822 20.8193 234.018 20.8753 234.233 20.922C234.448 20.9593 234.681 20.978 234.933 20.978C235.11 20.978 235.292 20.9687 235.479 20.95C235.666 20.9313 235.834 20.8893 235.983 20.824C236.132 20.768 236.254 20.6887 236.347 20.586C236.45 20.474 236.501 20.334 236.501 20.166C236.501 19.9607 236.436 19.7927 236.305 19.662C236.184 19.5313 236.016 19.4147 235.801 19.312C235.577 19.2093 235.32 19.1113 235.031 19.018C234.751 18.9153 234.452 18.7847 234.135 18.626C233.808 18.486 233.505 18.2807 233.225 18.01C232.945 17.7393 232.805 17.366 232.805 16.89C232.805 16.246 233.038 15.742 233.505 15.378C233.972 15.014 234.648 14.832 235.535 14.832C235.899 14.832 236.268 14.874 236.641 14.958C237.014 15.042 237.313 15.1167 237.537 15.182V16.624C237.285 16.512 236.977 16.3907 236.613 16.26C236.249 16.12 235.843 16.05 235.395 16.05C235.162 16.05 234.914 16.0967 234.653 16.19C234.401 16.274 234.275 16.4327 234.275 16.666C234.275 16.8247 234.312 16.9647 234.387 17.086C234.462 17.2073 234.583 17.3193 234.751 17.422C234.956 17.5433 235.241 17.6647 235.605 17.786C235.969 17.9073 236.328 18.066 236.683 18.262C237.028 18.4487 237.332 18.6867 237.593 18.976C237.854 19.256 237.985 19.6153 237.985 20.054Z" fill="white"/>
</g>
<g filter="url(#filter1_d_676_1986)">
<path d="M245.14 150.348H242.326V159.084H240.786V150.348H238V149.018H245.14V150.348ZM251.479 159.014H249.981V158.258H249.967C249.92 158.314 249.85 158.393 249.757 158.496C249.673 158.599 249.547 158.701 249.379 158.804C249.211 158.897 248.996 158.981 248.735 159.056C248.473 159.131 248.156 159.168 247.783 159.168C247.521 159.168 247.26 159.121 246.999 159.028C246.747 158.944 246.523 158.818 246.327 158.65C246.121 158.482 245.958 158.281 245.837 158.048C245.715 157.805 245.655 157.53 245.655 157.222C245.655 156.681 245.832 156.209 246.187 155.808C246.551 155.397 246.971 155.122 247.447 154.982C248.007 154.814 248.511 154.73 248.959 154.73C249.407 154.721 249.747 154.721 249.981 154.73V154.338C249.981 154.226 249.971 154.1 249.953 153.96C249.934 153.82 249.878 153.666 249.785 153.498C249.701 153.367 249.565 153.255 249.379 153.162C249.201 153.069 248.973 153.022 248.693 153.022C248.319 153.022 248.011 153.115 247.769 153.302C247.535 153.489 247.419 153.769 247.419 154.142H245.851C245.851 153.843 245.907 153.554 246.019 153.274C246.14 152.994 246.317 152.747 246.551 152.532C246.793 152.317 247.092 152.145 247.447 152.014C247.801 151.883 248.221 151.818 248.707 151.818C249.659 151.818 250.359 152.061 250.807 152.546C251.255 153.022 251.479 153.601 251.479 154.282V159.014ZM249.981 156.284V155.794C249.757 155.785 249.514 155.785 249.253 155.794C249.001 155.803 248.735 155.836 248.455 155.892C248.184 155.948 247.913 156.083 247.643 156.298C247.372 156.503 247.237 156.765 247.237 157.082C247.237 157.409 247.344 157.637 247.559 157.768C247.773 157.889 248.016 157.95 248.287 157.95C248.539 157.95 248.828 157.861 249.155 157.684C249.491 157.507 249.729 157.255 249.869 156.928C249.897 156.835 249.92 156.737 249.939 156.634C249.967 156.531 249.981 156.415 249.981 156.284ZM254.765 159.056H253.281V148.99H254.765V159.056ZM262.773 155.01H262.745V155.92H257.817C257.864 156.209 257.948 156.48 258.069 156.732C258.2 156.984 258.382 157.208 258.615 157.404C258.849 157.591 259.143 157.74 259.497 157.852C259.852 157.964 260.281 158.02 260.785 158.02C260.832 158.02 260.916 158.015 261.037 158.006C261.168 157.987 261.317 157.959 261.485 157.922C261.653 157.894 261.831 157.847 262.017 157.782C262.204 157.717 262.381 157.633 262.549 157.53V158.664C262.185 158.879 261.775 159.023 261.317 159.098C260.869 159.182 260.417 159.21 259.959 159.182C259.511 159.154 259.082 159.075 258.671 158.944C258.261 158.804 257.915 158.627 257.635 158.412C257.234 158.113 256.903 157.698 256.641 157.166C256.38 156.625 256.249 156.018 256.249 155.346C256.249 154.31 256.543 153.465 257.131 152.812C257.719 152.159 258.587 151.832 259.735 151.832C260.622 151.832 261.341 152.121 261.891 152.7C262.451 153.269 262.745 154.039 262.773 155.01ZM261.275 154.73C261.275 154.534 261.243 154.333 261.177 154.128C261.112 153.923 261.019 153.741 260.897 153.582C260.767 153.423 260.599 153.293 260.393 153.19C260.197 153.087 259.964 153.036 259.693 153.036C259.161 153.036 258.723 153.185 258.377 153.484C258.041 153.773 257.841 154.189 257.775 154.73H261.275ZM268.727 157.054C268.727 157.371 268.681 157.665 268.587 157.936C268.494 158.197 268.331 158.421 268.097 158.608C267.864 158.804 267.556 158.953 267.173 159.056C266.791 159.159 266.305 159.21 265.717 159.21C265.269 159.21 264.845 159.159 264.443 159.056C264.042 158.953 263.734 158.855 263.519 158.762V157.348C263.622 157.404 263.743 157.469 263.883 157.544C264.033 157.619 264.201 157.689 264.387 157.754C264.565 157.819 264.761 157.875 264.975 157.922C265.19 157.959 265.423 157.978 265.675 157.978C265.853 157.978 266.035 157.969 266.221 157.95C266.408 157.931 266.576 157.889 266.725 157.824C266.875 157.768 266.996 157.689 267.089 157.586C267.192 157.474 267.243 157.334 267.243 157.166C267.243 156.961 267.178 156.793 267.047 156.662C266.926 156.531 266.758 156.415 266.543 156.312C266.319 156.209 266.063 156.111 265.773 156.018C265.493 155.915 265.195 155.785 264.877 155.626C264.551 155.486 264.247 155.281 263.967 155.01C263.687 154.739 263.547 154.366 263.547 153.89C263.547 153.246 263.781 152.742 264.247 152.378C264.714 152.014 265.391 151.832 266.277 151.832C266.641 151.832 267.01 151.874 267.383 151.958C267.757 152.042 268.055 152.117 268.279 152.182V153.624C268.027 153.512 267.719 153.391 267.355 153.26C266.991 153.12 266.585 153.05 266.137 153.05C265.904 153.05 265.657 153.097 265.395 153.19C265.143 153.274 265.017 153.433 265.017 153.666C265.017 153.825 265.055 153.965 265.129 154.086C265.204 154.207 265.325 154.319 265.493 154.422C265.699 154.543 265.983 154.665 266.347 154.786C266.711 154.907 267.071 155.066 267.425 155.262C267.771 155.449 268.074 155.687 268.335 155.976C268.597 156.256 268.727 156.615 268.727 157.054Z" fill="white"/>
</g>
<g filter="url(#filter2_d_676_1986)">
<path d="M127.378 110.39C127.527 110.894 127.686 111.421 127.854 111.972C128.022 112.513 128.195 113.059 128.372 113.61C128.559 114.151 128.741 114.688 128.918 115.22C129.105 115.743 129.282 116.237 129.45 116.704C129.59 116.2 129.725 115.654 129.856 115.066C129.987 114.469 130.117 113.853 130.248 113.218C130.379 112.574 130.505 111.921 130.626 111.258C130.757 110.595 130.878 109.942 130.99 109.298H132.81C132.483 111.053 132.119 112.742 131.718 114.366C131.317 115.981 130.869 117.525 130.374 119H128.694C127.966 117.115 127.261 115.057 126.58 112.826C126.235 113.955 125.885 115.029 125.53 116.046C125.175 117.063 124.821 118.048 124.466 119H122.786C122.282 117.525 121.829 115.981 121.428 114.366C121.036 112.742 120.677 111.053 120.35 109.298H122.24C122.352 109.933 122.469 110.581 122.59 111.244C122.721 111.907 122.851 112.56 122.982 113.204C123.122 113.839 123.262 114.455 123.402 115.052C123.542 115.649 123.682 116.2 123.822 116.704C123.999 116.228 124.177 115.729 124.354 115.206C124.541 114.674 124.723 114.137 124.9 113.596C125.077 113.045 125.245 112.499 125.404 111.958C125.572 111.417 125.726 110.894 125.866 110.39H127.378ZM133.551 115.374C133.551 114.73 133.644 114.165 133.831 113.68C134.027 113.195 134.284 112.793 134.601 112.476C134.918 112.149 135.282 111.907 135.693 111.748C136.104 111.58 136.524 111.496 136.953 111.496C137.961 111.496 138.745 111.809 139.305 112.434C139.874 113.059 140.159 113.993 140.159 115.234C140.159 115.327 140.154 115.435 140.145 115.556C140.145 115.668 140.14 115.771 140.131 115.864H135.301C135.348 116.452 135.553 116.909 135.917 117.236C136.29 117.553 136.827 117.712 137.527 117.712C137.938 117.712 138.311 117.675 138.647 117.6C138.992 117.525 139.263 117.446 139.459 117.362L139.683 118.748C139.59 118.795 139.459 118.846 139.291 118.902C139.132 118.949 138.946 118.991 138.731 119.028C138.526 119.075 138.302 119.112 138.059 119.14C137.816 119.168 137.569 119.182 137.317 119.182C136.673 119.182 136.113 119.089 135.637 118.902C135.161 118.706 134.769 118.44 134.461 118.104C134.153 117.759 133.924 117.357 133.775 116.9C133.626 116.433 133.551 115.925 133.551 115.374ZM138.465 114.618C138.465 114.385 138.432 114.165 138.367 113.96C138.302 113.745 138.204 113.563 138.073 113.414C137.952 113.255 137.798 113.134 137.611 113.05C137.434 112.957 137.219 112.91 136.967 112.91C136.706 112.91 136.477 112.961 136.281 113.064C136.085 113.157 135.917 113.283 135.777 113.442C135.646 113.601 135.544 113.783 135.469 113.988C135.394 114.193 135.343 114.403 135.315 114.618H138.465ZM146.813 115.318C146.813 114.599 146.668 114.03 146.379 113.61C146.099 113.19 145.651 112.98 145.035 112.98C144.755 112.98 144.489 113.022 144.237 113.106C143.994 113.19 143.798 113.283 143.649 113.386V117.6C143.77 117.628 143.924 117.656 144.111 117.684C144.307 117.703 144.54 117.712 144.811 117.712C145.436 117.712 145.926 117.502 146.281 117.082C146.636 116.653 146.813 116.065 146.813 115.318ZM148.549 115.346C148.549 115.934 148.46 116.466 148.283 116.942C148.115 117.409 147.868 117.81 147.541 118.146C147.224 118.482 146.836 118.739 146.379 118.916C145.922 119.093 145.404 119.182 144.825 119.182C144.265 119.182 143.728 119.14 143.215 119.056C142.711 118.972 142.291 118.879 141.955 118.776V108.416L143.649 108.136V111.93C143.845 111.827 144.083 111.734 144.363 111.65C144.652 111.566 144.97 111.524 145.315 111.524C145.828 111.524 146.286 111.617 146.687 111.804C147.098 111.981 147.438 112.238 147.709 112.574C147.98 112.91 148.185 113.316 148.325 113.792C148.474 114.259 148.549 114.777 148.549 115.346ZM152.129 117.782C152.577 117.782 152.903 117.731 153.109 117.628C153.314 117.516 153.417 117.329 153.417 117.068C153.417 116.825 153.305 116.625 153.081 116.466C152.866 116.307 152.507 116.135 152.003 115.948C151.695 115.836 151.41 115.719 151.149 115.598C150.897 115.467 150.677 115.318 150.491 115.15C150.304 114.982 150.155 114.781 150.043 114.548C149.94 114.305 149.889 114.011 149.889 113.666C149.889 112.994 150.136 112.467 150.631 112.084C151.125 111.692 151.797 111.496 152.647 111.496C153.076 111.496 153.487 111.538 153.879 111.622C154.271 111.697 154.565 111.771 154.761 111.846L154.453 113.218C154.266 113.134 154.028 113.059 153.739 112.994C153.449 112.919 153.113 112.882 152.731 112.882C152.385 112.882 152.105 112.943 151.891 113.064C151.676 113.176 151.569 113.353 151.569 113.596C151.569 113.717 151.587 113.825 151.625 113.918C151.671 114.011 151.746 114.1 151.849 114.184C151.951 114.259 152.087 114.338 152.255 114.422C152.423 114.497 152.628 114.576 152.871 114.66C153.272 114.809 153.613 114.959 153.893 115.108C154.173 115.248 154.401 115.411 154.579 115.598C154.765 115.775 154.901 115.981 154.985 116.214C155.069 116.447 155.111 116.727 155.111 117.054C155.111 117.754 154.849 118.286 154.327 118.65C153.813 119.005 153.076 119.182 152.115 119.182C151.471 119.182 150.953 119.126 150.561 119.014C150.169 118.911 149.893 118.827 149.735 118.762L150.029 117.348C150.281 117.451 150.579 117.549 150.925 117.642C151.279 117.735 151.681 117.782 152.129 117.782ZM158.401 119H156.707V111.678H158.401V119ZM158.583 109.536C158.583 109.853 158.481 110.105 158.275 110.292C158.07 110.479 157.827 110.572 157.547 110.572C157.258 110.572 157.011 110.479 156.805 110.292C156.6 110.105 156.497 109.853 156.497 109.536C156.497 109.209 156.6 108.953 156.805 108.766C157.011 108.579 157.258 108.486 157.547 108.486C157.827 108.486 158.07 108.579 158.275 108.766C158.481 108.953 158.583 109.209 158.583 109.536ZM160.478 109.746L162.172 109.466V111.678H164.776V113.092H162.172V116.074C162.172 116.662 162.266 117.082 162.452 117.334C162.639 117.586 162.956 117.712 163.404 117.712C163.712 117.712 163.983 117.679 164.216 117.614C164.459 117.549 164.65 117.488 164.79 117.432L165.07 118.776C164.874 118.86 164.618 118.944 164.3 119.028C163.983 119.121 163.61 119.168 163.18 119.168C162.658 119.168 162.219 119.098 161.864 118.958C161.519 118.818 161.244 118.617 161.038 118.356C160.833 118.085 160.688 117.763 160.604 117.39C160.52 117.007 160.478 116.573 160.478 116.088V109.746ZM165.885 115.374C165.885 114.73 165.978 114.165 166.165 113.68C166.361 113.195 166.618 112.793 166.935 112.476C167.252 112.149 167.616 111.907 168.027 111.748C168.438 111.58 168.858 111.496 169.287 111.496C170.295 111.496 171.079 111.809 171.639 112.434C172.208 113.059 172.493 113.993 172.493 115.234C172.493 115.327 172.488 115.435 172.479 115.556C172.479 115.668 172.474 115.771 172.465 115.864H167.635C167.682 116.452 167.887 116.909 168.251 117.236C168.624 117.553 169.161 117.712 169.861 117.712C170.272 117.712 170.645 117.675 170.981 117.6C171.326 117.525 171.597 117.446 171.793 117.362L172.017 118.748C171.924 118.795 171.793 118.846 171.625 118.902C171.466 118.949 171.28 118.991 171.065 119.028C170.86 119.075 170.636 119.112 170.393 119.14C170.15 119.168 169.903 119.182 169.651 119.182C169.007 119.182 168.447 119.089 167.971 118.902C167.495 118.706 167.103 118.44 166.795 118.104C166.487 117.759 166.258 117.357 166.109 116.9C165.96 116.433 165.885 115.925 165.885 115.374ZM170.799 114.618C170.799 114.385 170.766 114.165 170.701 113.96C170.636 113.745 170.538 113.563 170.407 113.414C170.286 113.255 170.132 113.134 169.945 113.05C169.768 112.957 169.553 112.91 169.301 112.91C169.04 112.91 168.811 112.961 168.615 113.064C168.419 113.157 168.251 113.283 168.111 113.442C167.98 113.601 167.878 113.783 167.803 113.988C167.728 114.193 167.677 114.403 167.649 114.618H170.799Z" fill="white"/>
</g>
<g filter="url(#filter3_d_676_1986)">
<path d="M41.972 26.042H36.078V15.976H41.832V17.32H37.618V20.106H41.664V21.45H37.618V24.698H41.972V26.042ZM49.4798 19L46.6518 26.042H45.3918L42.2978 19H43.8238L45.9938 24.096H46.0358L47.9958 19H49.4798ZM56.3555 22.01H56.3275V22.92H51.3995C51.4461 23.2093 51.5301 23.48 51.6515 23.732C51.7821 23.984 51.9641 24.208 52.1975 24.404C52.4308 24.5907 52.7248 24.74 53.0795 24.852C53.4341 24.964 53.8635 25.02 54.3675 25.02C54.4141 25.02 54.4981 25.0153 54.6195 25.006C54.7501 24.9873 54.8995 24.9593 55.0675 24.922C55.2355 24.894 55.4128 24.8473 55.5995 24.782C55.7861 24.7167 55.9635 24.6327 56.1315 24.53V25.664C55.7675 25.8787 55.3568 26.0233 54.8995 26.098C54.4515 26.182 53.9988 26.21 53.5415 26.182C53.0935 26.154 52.6641 26.0747 52.2535 25.944C51.8428 25.804 51.4975 25.6267 51.2175 25.412C50.8161 25.1133 50.4848 24.698 50.2235 24.166C49.9621 23.6247 49.8315 23.018 49.8315 22.346C49.8315 21.31 50.1255 20.4653 50.7135 19.812C51.3015 19.1587 52.1695 18.832 53.3175 18.832C54.2041 18.832 54.9228 19.1213 55.4735 19.7C56.0335 20.2693 56.3275 21.0393 56.3555 22.01ZM54.8575 21.73C54.8575 21.534 54.8248 21.3333 54.7595 21.128C54.6941 20.9227 54.6008 20.7407 54.4795 20.582C54.3488 20.4233 54.1808 20.2927 53.9755 20.19C53.7795 20.0873 53.5461 20.036 53.2755 20.036C52.7435 20.036 52.3048 20.1853 51.9595 20.484C51.6235 20.7733 51.4228 21.1887 51.3575 21.73H54.8575ZM62.1973 20.316C61.4973 20.316 60.8906 20.4467 60.3773 20.708C59.864 20.96 59.5373 21.3847 59.3973 21.982C59.3506 22.15 59.3133 22.3367 59.2853 22.542C59.2666 22.738 59.2526 22.948 59.2433 23.172V26.056H57.7733V19.014H59.2433V20.442H59.3133C59.3693 20.3113 59.458 20.1433 59.5793 19.938C59.7006 19.7233 59.864 19.546 60.0693 19.406C60.3493 19.2193 60.6293 19.084 60.9093 19C61.1893 18.9067 61.6186 18.86 62.1973 18.86V20.316ZM69.4633 22.514C69.4633 23.7553 69.1506 24.684 68.5253 25.3C67.9093 25.9067 67.1253 26.21 66.1733 26.21C65.548 26.21 65.03 26.098 64.6193 25.874C64.2086 25.65 63.8866 25.3653 63.6533 25.02C63.4106 24.684 63.2426 24.3107 63.1493 23.9C63.056 23.4893 63.0093 23.102 63.0093 22.738V15.99H64.4513V20.176H64.5073C64.526 20.1107 64.5726 20.008 64.6473 19.868C64.722 19.7187 64.834 19.5693 64.9833 19.42C65.1233 19.2707 65.31 19.14 65.5433 19.028C65.7766 18.916 66.0613 18.86 66.3973 18.86C67.1813 18.86 67.8113 19.056 68.2873 19.448C68.7633 19.84 69.0993 20.3953 69.2953 21.114C69.3513 21.3473 69.3933 21.5713 69.4213 21.786C69.4493 21.9913 69.4633 22.234 69.4633 22.514ZM67.9233 22.584C67.9233 22.444 67.9186 22.3133 67.9093 22.192C67.9 22.0707 67.8813 21.9167 67.8533 21.73C67.7973 21.3193 67.6386 20.9507 67.3773 20.624C67.1253 20.2973 66.7426 20.134 66.2293 20.134C65.9493 20.134 65.702 20.2087 65.4873 20.358C65.2726 20.5073 65.0906 20.6987 64.9413 20.932C64.792 21.1747 64.68 21.45 64.6053 21.758C64.54 22.066 64.5073 22.3787 64.5073 22.696C64.5073 22.948 64.5353 23.214 64.5913 23.494C64.6473 23.7647 64.7406 24.012 64.8713 24.236C65.0113 24.4693 65.184 24.6607 65.3893 24.81C65.604 24.95 65.8653 25.02 66.1733 25.02C66.752 25.02 67.186 24.7867 67.4753 24.32C67.774 23.8533 67.9233 23.2747 67.9233 22.584ZM75.2813 20.316C74.5813 20.316 73.9746 20.4467 73.4613 20.708C72.9479 20.96 72.6213 21.3847 72.4813 21.982C72.4346 22.15 72.3973 22.3367 72.3693 22.542C72.3506 22.738 72.3366 22.948 72.3273 23.172V26.056H70.8573V19.014H72.3273V20.442H72.3973C72.4533 20.3113 72.5419 20.1433 72.6633 19.938C72.7846 19.7233 72.9479 19.546 73.1533 19.406C73.4333 19.2193 73.7133 19.084 73.9933 19C74.2733 18.9067 74.7026 18.86 75.2813 18.86V20.316ZM77.7313 17.754H75.9673V16.004H77.7313V17.754ZM77.6053 26.084H76.1213V19.042H77.6053V26.084ZM85.4873 25.44C85.4873 26.5133 85.1793 27.316 84.5633 27.848C83.9473 28.38 83.0699 28.646 81.9313 28.646C81.5673 28.646 81.1659 28.6133 80.7273 28.548C80.2886 28.4827 79.9106 28.38 79.5933 28.24V26.812C79.9946 27.0173 80.4053 27.162 80.8253 27.246C81.2546 27.33 81.6699 27.372 82.0713 27.372C82.6873 27.372 83.1493 27.2367 83.4573 26.966C83.7653 26.7047 83.9473 26.3687 84.0033 25.958C84.0126 25.902 84.0173 25.86 84.0173 25.832C84.0173 25.7947 84.0173 25.7667 84.0173 25.748C84.0173 25.7293 84.0173 25.7107 84.0173 25.692C84.0173 25.6733 84.0173 25.6407 84.0173 25.594V24.74H83.9753C83.9566 24.7867 83.9146 24.88 83.8493 25.02C83.7839 25.16 83.6813 25.3047 83.5413 25.454C83.4013 25.6033 83.2099 25.7387 82.9673 25.86C82.7339 25.972 82.4353 26.028 82.0713 26.028C81.2219 26.028 80.5126 25.7433 79.9433 25.174C79.3739 24.5953 79.0893 23.7553 79.0893 22.654C79.0893 22.374 79.0986 22.0987 79.1173 21.828C79.1453 21.5573 79.1826 21.3147 79.2293 21.1C79.2946 20.8107 79.4066 20.526 79.5653 20.246C79.7333 19.966 79.9433 19.7233 80.1953 19.518C80.4379 19.3033 80.7273 19.1307 81.0633 19C81.3993 18.8693 81.7726 18.804 82.1833 18.804C82.4446 18.804 82.6779 18.8507 82.8833 18.944C83.0979 19.0373 83.2799 19.1493 83.4293 19.28C83.5693 19.4107 83.6859 19.5507 83.7793 19.7C83.8726 19.8493 83.9379 19.98 83.9753 20.092H84.0173V18.972H85.4873V25.44ZM83.9613 22.374C83.9613 22.0847 83.9193 21.8 83.8353 21.52C83.7513 21.24 83.6346 20.988 83.4853 20.764C83.3359 20.54 83.1539 20.358 82.9393 20.218C82.7246 20.078 82.4866 20.008 82.2253 20.008C81.9173 20.008 81.5999 20.1293 81.2733 20.372C80.9559 20.6147 80.7413 20.988 80.6293 21.492C80.6106 21.5667 80.5966 21.66 80.5873 21.772C80.5779 21.8747 80.5733 21.982 80.5733 22.094C80.5639 22.206 80.5593 22.318 80.5593 22.43C80.5593 22.5327 80.5593 22.6167 80.5593 22.682C80.5593 22.9433 80.5873 23.2047 80.6433 23.466C80.6993 23.718 80.7926 23.942 80.9233 24.138C81.0633 24.3433 81.2359 24.5067 81.4413 24.628C81.6559 24.7493 81.9173 24.81 82.2253 24.81C82.7106 24.81 83.1213 24.586 83.4573 24.138C83.7933 23.69 83.9613 23.102 83.9613 22.374ZM93.5033 26.042H92.0193V21.478C92.0193 21.3567 92.0006 21.2213 91.9633 21.072C91.9353 20.9133 91.8793 20.7687 91.7953 20.638C91.7206 20.5073 91.6086 20.3953 91.4593 20.302C91.3193 20.2087 91.1373 20.162 90.9133 20.162C90.5119 20.162 90.1246 20.344 89.7513 20.708C89.3873 21.072 89.1353 21.5153 88.9953 22.038C88.9486 22.206 88.9159 22.3693 88.8973 22.528C88.8786 22.6773 88.8693 22.8267 88.8693 22.976V26.042H87.4413V15.976H88.8693V20.61H88.9113C88.9393 20.5353 88.9953 20.4047 89.0793 20.218C89.1726 20.022 89.3079 19.8213 89.4853 19.616C89.6626 19.42 89.8819 19.2427 90.1433 19.084C90.4139 18.9253 90.7406 18.846 91.1233 18.846C91.4126 18.846 91.6973 18.8927 91.9773 18.986C92.2666 19.07 92.5233 19.196 92.7473 19.364C92.9713 19.5413 93.1533 19.7653 93.2933 20.036C93.4333 20.3067 93.5033 20.6287 93.5033 21.002V26.042ZM99.0553 20.232H97.0533V23.606C97.0533 23.7833 97.0579 23.956 97.0673 24.124C97.0859 24.2827 97.1233 24.4227 97.1793 24.544C97.2446 24.6747 97.3426 24.7773 97.4733 24.852C97.6039 24.9267 97.7859 24.964 98.0193 24.964C98.1593 24.964 98.3039 24.9547 98.4533 24.936C98.6026 24.9173 98.7893 24.8707 99.0133 24.796V26.126C98.7426 26.1633 98.5139 26.1867 98.3273 26.196C98.1406 26.2053 97.9679 26.21 97.8093 26.21C97.0533 26.21 96.4886 26.042 96.1153 25.706C95.7513 25.3607 95.5693 24.8427 95.5693 24.152V20.232H94.3653V19.014H95.5693V17.516L97.0533 16.62V19.014H99.0553V20.232Z" fill="white"/>
</g>
<g filter="url(#filter4_d_676_1986)">
<path d="M10.168 159.014H4.092V148.976H5.646V157.67H10.168V159.014ZM17 155.01H16.972V155.92H12.044C12.0907 156.209 12.1747 156.48 12.296 156.732C12.4267 156.984 12.6087 157.208 12.842 157.404C13.0753 157.591 13.3693 157.74 13.724 157.852C14.0787 157.964 14.508 158.02 15.012 158.02C15.0587 158.02 15.1427 158.015 15.264 158.006C15.3947 157.987 15.544 157.959 15.712 157.922C15.88 157.894 16.0573 157.847 16.244 157.782C16.4307 157.717 16.608 157.633 16.776 157.53V158.664C16.412 158.879 16.0013 159.023 15.544 159.098C15.096 159.182 14.6433 159.21 14.186 159.182C13.738 159.154 13.3087 159.075 12.898 158.944C12.4873 158.804 12.142 158.627 11.862 158.412C11.4607 158.113 11.1293 157.698 10.868 157.166C10.6067 156.625 10.476 156.018 10.476 155.346C10.476 154.31 10.77 153.465 11.358 152.812C11.946 152.159 12.814 151.832 13.962 151.832C14.8487 151.832 15.5673 152.121 16.118 152.7C16.678 153.269 16.972 154.039 17 155.01ZM15.502 154.73C15.502 154.534 15.4693 154.333 15.404 154.128C15.3387 153.923 15.2453 153.741 15.124 153.582C14.9933 153.423 14.8253 153.293 14.62 153.19C14.424 153.087 14.1907 153.036 13.92 153.036C13.388 153.036 12.9493 153.185 12.604 153.484C12.268 153.773 12.0673 154.189 12.002 154.73H15.502ZM24.2978 158.44C24.2978 159.513 23.9898 160.316 23.3738 160.848C22.7578 161.38 21.8805 161.646 20.7418 161.646C20.3778 161.646 19.9765 161.613 19.5378 161.548C19.0992 161.483 18.7212 161.38 18.4038 161.24V159.812C18.8052 160.017 19.2158 160.162 19.6358 160.246C20.0652 160.33 20.4805 160.372 20.8818 160.372C21.4978 160.372 21.9598 160.237 22.2678 159.966C22.5758 159.705 22.7578 159.369 22.8138 158.958C22.8232 158.902 22.8278 158.86 22.8278 158.832C22.8278 158.795 22.8278 158.767 22.8278 158.748C22.8278 158.729 22.8278 158.711 22.8278 158.692C22.8278 158.673 22.8278 158.641 22.8278 158.594V157.74H22.7858C22.7672 157.787 22.7252 157.88 22.6598 158.02C22.5945 158.16 22.4918 158.305 22.3518 158.454C22.2118 158.603 22.0205 158.739 21.7778 158.86C21.5445 158.972 21.2458 159.028 20.8818 159.028C20.0325 159.028 19.3232 158.743 18.7538 158.174C18.1845 157.595 17.8998 156.755 17.8998 155.654C17.8998 155.374 17.9092 155.099 17.9278 154.828C17.9558 154.557 17.9932 154.315 18.0398 154.1C18.1052 153.811 18.2172 153.526 18.3758 153.246C18.5438 152.966 18.7538 152.723 19.0058 152.518C19.2485 152.303 19.5378 152.131 19.8738 152C20.2098 151.869 20.5832 151.804 20.9938 151.804C21.2552 151.804 21.4885 151.851 21.6938 151.944C21.9085 152.037 22.0905 152.149 22.2398 152.28C22.3798 152.411 22.4965 152.551 22.5898 152.7C22.6832 152.849 22.7485 152.98 22.7858 153.092H22.8278V151.972H24.2978V158.44ZM22.7718 155.374C22.7718 155.085 22.7298 154.8 22.6458 154.52C22.5618 154.24 22.4452 153.988 22.2958 153.764C22.1465 153.54 21.9645 153.358 21.7498 153.218C21.5352 153.078 21.2972 153.008 21.0358 153.008C20.7278 153.008 20.4105 153.129 20.0838 153.372C19.7665 153.615 19.5518 153.988 19.4398 154.492C19.4212 154.567 19.4072 154.66 19.3978 154.772C19.3885 154.875 19.3838 154.982 19.3838 155.094C19.3745 155.206 19.3698 155.318 19.3698 155.43C19.3698 155.533 19.3698 155.617 19.3698 155.682C19.3698 155.943 19.3978 156.205 19.4538 156.466C19.5098 156.718 19.6032 156.942 19.7338 157.138C19.8738 157.343 20.0465 157.507 20.2518 157.628C20.4665 157.749 20.7278 157.81 21.0358 157.81C21.5212 157.81 21.9318 157.586 22.2678 157.138C22.6038 156.69 22.7718 156.102 22.7718 155.374ZM32.2578 155.01H32.2298V155.92H27.3018C27.3485 156.209 27.4325 156.48 27.5538 156.732C27.6845 156.984 27.8665 157.208 28.0998 157.404C28.3331 157.591 28.6271 157.74 28.9818 157.852C29.3365 157.964 29.7658 158.02 30.2698 158.02C30.3165 158.02 30.4005 158.015 30.5218 158.006C30.6525 157.987 30.8018 157.959 30.9698 157.922C31.1378 157.894 31.3151 157.847 31.5018 157.782C31.6885 157.717 31.8658 157.633 32.0338 157.53V158.664C31.6698 158.879 31.2591 159.023 30.8018 159.098C30.3538 159.182 29.9011 159.21 29.4438 159.182C28.9958 159.154 28.5665 159.075 28.1558 158.944C27.7451 158.804 27.3998 158.627 27.1198 158.412C26.7185 158.113 26.3871 157.698 26.1258 157.166C25.8645 156.625 25.7338 156.018 25.7338 155.346C25.7338 154.31 26.0278 153.465 26.6158 152.812C27.2038 152.159 28.0718 151.832 29.2198 151.832C30.1065 151.832 30.8251 152.121 31.3758 152.7C31.9358 153.269 32.2298 154.039 32.2578 155.01ZM30.7598 154.73C30.7598 154.534 30.7271 154.333 30.6618 154.128C30.5965 153.923 30.5031 153.741 30.3818 153.582C30.2511 153.423 30.0831 153.293 29.8778 153.19C29.6818 153.087 29.4485 153.036 29.1778 153.036C28.6458 153.036 28.2071 153.185 27.8618 153.484C27.5258 153.773 27.3251 154.189 27.2598 154.73H30.7598ZM39.6396 159.028H38.2396V155.206C38.2396 154.991 38.235 154.772 38.2256 154.548C38.2256 154.324 38.1883 154.114 38.1136 153.918C38.0483 153.731 37.9363 153.577 37.7776 153.456C37.619 153.325 37.3856 153.246 37.0776 153.218C36.6483 153.19 36.2656 153.367 35.9296 153.75C35.5936 154.133 35.3463 154.618 35.1876 155.206C35.1503 155.374 35.1223 155.542 35.1036 155.71C35.085 155.869 35.0756 156.018 35.0756 156.158V159.028H33.6756V151.986H35.0756V153.554H35.1456C35.183 153.461 35.239 153.321 35.3136 153.134C35.3883 152.938 35.5096 152.742 35.6776 152.546C35.8363 152.359 36.0416 152.196 36.2936 152.056C36.555 151.907 36.891 151.832 37.3016 151.832C37.9736 151.832 38.529 152.033 38.9676 152.434C39.4156 152.835 39.6396 153.395 39.6396 154.114V159.028ZM47.512 159.028H46.07V158.02H46.028C46.0093 158.076 45.9673 158.169 45.902 158.3C45.846 158.431 45.7433 158.561 45.594 158.692C45.4447 158.832 45.244 158.949 44.992 159.042C44.7493 159.145 44.432 159.196 44.04 159.196C43.6107 159.196 43.2187 159.112 42.864 158.944C42.5093 158.767 42.2013 158.519 41.94 158.202C41.688 157.885 41.492 157.507 41.352 157.068C41.212 156.629 41.142 156.144 41.142 155.612C41.142 155.36 41.1513 155.131 41.17 154.926C41.1887 154.711 41.226 154.501 41.282 154.296C41.506 153.4 41.884 152.765 42.416 152.392C42.948 152.019 43.5453 151.832 44.208 151.832C44.488 151.832 44.7307 151.879 44.936 151.972C45.1507 152.065 45.3327 152.177 45.482 152.308C45.6313 152.448 45.748 152.593 45.832 152.742C45.9253 152.882 45.9907 153.003 46.028 153.106H46.07V148.962H47.512V159.028ZM45.958 155.164C45.958 154.996 45.9253 154.791 45.86 154.548C45.804 154.305 45.7107 154.072 45.58 153.848C45.4493 153.624 45.2767 153.433 45.062 153.274C44.8567 153.115 44.6 153.036 44.292 153.036C43.9187 153.036 43.578 153.181 43.27 153.47C42.962 153.75 42.7707 154.156 42.696 154.688C42.6773 154.781 42.6633 154.87 42.654 154.954C42.654 155.029 42.654 155.108 42.654 155.192C42.6447 155.276 42.64 155.36 42.64 155.444C42.64 155.519 42.64 155.598 42.64 155.682C42.64 155.953 42.668 156.228 42.724 156.508C42.7893 156.779 42.892 157.026 43.032 157.25C43.1627 157.483 43.3307 157.67 43.536 157.81C43.7507 157.95 44.0073 158.02 44.306 158.02C44.7167 158.02 45.0527 157.852 45.314 157.516C45.5847 157.18 45.762 156.788 45.846 156.34C45.874 156.172 45.8973 155.985 45.916 155.78C45.944 155.575 45.958 155.369 45.958 155.164ZM54.03 157.054C54.03 157.371 53.9833 157.665 53.89 157.936C53.7967 158.197 53.6333 158.421 53.4 158.608C53.1667 158.804 52.8587 158.953 52.476 159.056C52.0933 159.159 51.608 159.21 51.02 159.21C50.572 159.21 50.1473 159.159 49.746 159.056C49.3447 158.953 49.0367 158.855 48.822 158.762V157.348C48.9247 157.404 49.046 157.469 49.186 157.544C49.3353 157.619 49.5033 157.689 49.69 157.754C49.8673 157.819 50.0633 157.875 50.278 157.922C50.4927 157.959 50.726 157.978 50.978 157.978C51.1553 157.978 51.3373 157.969 51.524 157.95C51.7107 157.931 51.8787 157.889 52.028 157.824C52.1773 157.768 52.2987 157.689 52.392 157.586C52.4947 157.474 52.546 157.334 52.546 157.166C52.546 156.961 52.4807 156.793 52.35 156.662C52.2287 156.531 52.0607 156.415 51.846 156.312C51.622 156.209 51.3653 156.111 51.076 156.018C50.796 155.915 50.4973 155.785 50.18 155.626C49.8533 155.486 49.55 155.281 49.27 155.01C48.99 154.739 48.85 154.366 48.85 153.89C48.85 153.246 49.0833 152.742 49.55 152.378C50.0167 152.014 50.6933 151.832 51.58 151.832C51.944 151.832 52.3127 151.874 52.686 151.958C53.0593 152.042 53.358 152.117 53.582 152.182V153.624C53.33 153.512 53.022 153.391 52.658 153.26C52.294 153.12 51.888 153.05 51.44 153.05C51.2067 153.05 50.9593 153.097 50.698 153.19C50.446 153.274 50.32 153.433 50.32 153.666C50.32 153.825 50.3573 153.965 50.432 154.086C50.5067 154.207 50.628 154.319 50.796 154.422C51.0013 154.543 51.286 154.665 51.65 154.786C52.014 154.907 52.3733 155.066 52.728 155.262C53.0733 155.449 53.3767 155.687 53.638 155.976C53.8993 156.256 54.03 156.615 54.03 157.054Z" fill="white"/>
</g>
<defs>
<filter id="filter0_d_676_1986" x="175.092" y="11.9619" width="66.8936" height="18.248" filterUnits="userSpaceOnUse" color-interpolation-filters="sRGB">
<feFlood flood-opacity="0" result="BackgroundImageFix"/>
<feColorMatrix in="SourceAlpha" type="matrix" values="0 0 0 0 0 0 0 0 0 0 0 0 0 0 0 0 0 0 127 0" result="hardAlpha"/>
<feOffset dy="4"/>
<feGaussianBlur stdDeviation="2"/>
<feComposite in2="hardAlpha" operator="out"/>
<feColorMatrix type="matrix" values="0 0 0 0 0 0 0 0 0 0 0 0 0 0 0 0 0 0 0.25 0"/>
<feBlend mode="normal" in2="BackgroundImageFix" result="effect1_dropShadow_676_1986"/>
<feBlend mode="normal" in="SourceGraphic" in2="effect1_dropShadow_676_1986" result="shape"/>
</filter>
<filter id="filter1_d_676_1986" x="234" y="148.99" width="38.7275" height="18.2341" filterUnits="userSpaceOnUse" color-interpolation-filters="sRGB">
<feFlood flood-opacity="0" result="BackgroundImageFix"/>
<feColorMatrix in="SourceAlpha" type="matrix" values="0 0 0 0 0 0 0 0 0 0 0 0 0 0 0 0 0 0 127 0" result="hardAlpha"/>
<feOffset dy="4"/>
<feGaussianBlur stdDeviation="2"/>
<feComposite in2="hardAlpha" operator="out"/>
<feColorMatrix type="matrix" values="0 0 0 0 0 0 0 0 0 0 0 0 0 0 0 0 0 0 0.25 0"/>
<feBlend mode="normal" in2="BackgroundImageFix" result="effect1_dropShadow_676_1986"/>
<feBlend mode="normal" in="SourceGraphic" in2="effect1_dropShadow_676_1986" result="shape"/>
</filter>
<filter id="filter2_d_676_1986" x="116.35" y="108.136" width="60.1436" height="19.0459" filterUnits="userSpaceOnUse" color-interpolation-filters="sRGB">
<feFlood flood-opacity="0" result="BackgroundImageFix"/>
<feColorMatrix in="SourceAlpha" type="matrix" values="0 0 0 0 0 0 0 0 0 0 0 0 0 0 0 0 0 0 127 0" result="hardAlpha"/>
<feOffset dy="4"/>
<feGaussianBlur stdDeviation="2"/>
<feComposite in2="hardAlpha" operator="out"/>
<feColorMatrix type="matrix" values="0 0 0 0 0 0 0 0 0 0 0 0 0 0 0 0 0 0 0.25 0"/>
<feBlend mode="normal" in2="BackgroundImageFix" result="effect1_dropShadow_676_1986"/>
<feBlend mode="normal" in="SourceGraphic" in2="effect1_dropShadow_676_1986" result="shape"/>
</filter>
<filter id="filter3_d_676_1986" x="32.0781" y="15.9761" width="70.9775" height="20.6699" filterUnits="userSpaceOnUse" color-interpolation-filters="sRGB">
<feFlood flood-opacity="0" result="BackgroundImageFix"/>
<feColorMatrix in="SourceAlpha" type="matrix" values="0 0 0 0 0 0 0 0 0 0 0 0 0 0 0 0 0 0 127 0" result="hardAlpha"/>
<feOffset dy="4"/>
<feGaussianBlur stdDeviation="2"/>
<feComposite in2="hardAlpha" operator="out"/>
<feColorMatrix type="matrix" values="0 0 0 0 0 0 0 0 0 0 0 0 0 0 0 0 0 0 0.25 0"/>
<feBlend mode="normal" in2="BackgroundImageFix" result="effect1_dropShadow_676_1986"/>
<feBlend mode="normal" in="SourceGraphic" in2="effect1_dropShadow_676_1986" result="shape"/>
</filter>
<filter id="filter4_d_676_1986" x="0.0917969" y="148.962" width="57.9385" height="20.6841" filterUnits="userSpaceOnUse" color-interpolation-filters="sRGB">
<feFlood flood-opacity="0" result="BackgroundImageFix"/>
<feColorMatrix in="SourceAlpha" type="matrix" values="0 0 0 0 0 0 0 0 0 0 0 0 0 0 0 0 0 0 127 0" result="hardAlpha"/>
<feOffset dy="4"/>
<feGaussianBlur stdDeviation="2"/>
<feComposite in2="hardAlpha" operator="out"/>
<feColorMatrix type="matrix" values="0 0 0 0 0 0 0 0 0 0 0 0 0 0 0 0 0 0 0.25 0"/>
<feBlend mode="normal" in2="BackgroundImageFix" result="effect1_dropShadow_676_1986"/>
<feBlend mode="normal" in="SourceGraphic" in2="effect1_dropShadow_676_1986" result="shape"/>
</filter>
<linearGradient id="paint0_linear_676_1986" x1="147" y1="61" x2="147" y2="172" gradientUnits="userSpaceOnUse">
<stop offset="0.0656249" stop-color="white"/>
<stop offset="0.794792" stop-color="#A13382"/>
<stop offset="1" stop-color="#D062F7" stop-opacity="0.36"/>
</linearGradient>
<linearGradient id="paint1_linear_676_1986" x1="201.049" y1="6" x2="201.049" y2="114.097" gradientUnits="userSpaceOnUse">
<stop offset="0.0656249" stop-color="white"/>
<stop offset="0.794792" stop-color="#A13382"/>
<stop offset="1" stop-color="#D062F7" stop-opacity="0.36"/>
</linearGradient>
<linearGradient id="paint2_linear_676_1986" x1="93.049" y1="6" x2="93.049" y2="114.682" gradientUnits="userSpaceOnUse">
<stop offset="0.0656249" stop-color="white"/>
<stop offset="0.794792" stop-color="#A13382"/>
<stop offset="1" stop-color="#D062F7" stop-opacity="0.36"/>
</linearGradient>
<linearGradient id="paint3_linear_676_1986" x1="93.049" y1="222.584" x2="93.049" y2="113.903" gradientUnits="userSpaceOnUse">
<stop offset="0.0656249" stop-color="white"/>
<stop offset="0.794792" stop-color="#A13382"/>
<stop offset="1" stop-color="#D062F7" stop-opacity="0.36"/>
</linearGradient>
<linearGradient id="paint4_linear_676_1986" x1="201.244" y1="222.584" x2="201.244" y2="114.097" gradientUnits="userSpaceOnUse">
<stop offset="0.0656249" stop-color="white"/>
<stop offset="0.794792" stop-color="#A13382"/>
<stop offset="1" stop-color="#D062F7" stop-opacity="0.36"/>
</linearGradient>
</defs>
</svg>
