<?xml version="1.0" encoding="UTF-8" standalone="no"?><!-- Generator: Gravit.io --><svg xmlns="http://www.w3.org/2000/svg" xmlns:xlink="http://www.w3.org/1999/xlink" style="isolation:isolate" viewBox="0 0 512 512" width="512pt" height="512pt"><defs><clipPath id="_clipPath_CPCcIK8QTWfiBSBDqU6G1DJfJ08WdvqE"><rect width="512" height="512"/></clipPath></defs><g clip-path="url(#_clipPath_CPCcIK8QTWfiBSBDqU6G1DJfJ08WdvqE)"><clipPath id="_clipPath_x7YqIUqnn4AylJMNURH51hQO8bUQNjV2"><rect x="0" y="0" width="512" height="512" transform="matrix(1,0,0,1,0,0)" fill="rgb(255,255,255)"/></clipPath><g clip-path="url(#_clipPath_x7YqIUqnn4AylJMNURH51hQO8bUQNjV2)"><g><rect x="0" y="0" width="512" height="512" transform="matrix(1,0,0,1,0,0)" fill="none"/><g filter="url(#QyKqlw4LhGLZOghmLH1wyepcw2msJ41i)"><mask id="_mask_DFCWPu7eGObAbT7nGPrKZsSvj8iQmWbD" x="-200%" y="-200%" width="400%" height="400%"><rect x="-200%" y="-200%" width="400%" height="400%" style="fill:white;"/><path d=" M 345 255.5 L 256.5 168.96 L 256.5 16 L 496 255.5 L 345 255.5 L 345 255.5 Z " fill="black" stroke="none"/></mask><path d=" M 345 255.5 L 256.5 168.96 L 256.5 16 L 496 255.5 L 345 255.5 L 345 255.5 Z " fill="none" mask="url(#_mask_DFCWPu7eGObAbT7nGPrKZsSvj8iQmWbD)" vector-effect="non-scaling-stroke" stroke-width="6" stroke="rgb(255,255,255)" stroke-opacity="100" stroke-linejoin="miter" stroke-linecap="square" stroke-miterlimit="3"/><path d=" M 345 255.5 L 256.5 168.96 L 256.5 16 L 496 255.5 L 345 255.5 L 345 255.5 Z " fill="none"/></g><defs><filter id="QyKqlw4LhGLZOghmLH1wyepcw2msJ41i" x="-200%" y="-200%" width="400%" height="400%" filterUnits="objectBoundingBox" color-interpolation-filters="sRGB"><feGaussianBlur xmlns="http://www.w3.org/2000/svg" in="SourceGraphic" stdDeviation="8.587218125678056"/><feOffset xmlns="http://www.w3.org/2000/svg" dx="0" dy="0" result="pf_100_offsetBlur"/><feFlood xmlns="http://www.w3.org/2000/svg" flood-color="#FFFFFF" flood-opacity="1"/><feComposite xmlns="http://www.w3.org/2000/svg" in2="pf_100_offsetBlur" operator="in" result="pf_100_dropShadow"/><feBlend xmlns="http://www.w3.org/2000/svg" in="SourceGraphic" in2="pf_100_dropShadow" mode="normal"/></filter></defs></g></g></g></svg>